<svg width="256" height="256" viewBox="0 0 256 256" fill="none" xmlns="http://www.w3.org/2000/svg">
<path fill-rule="evenodd" clip-rule="evenodd" d="M0 32.9897C0 14.77 14.77 0 32.9897 0H58.9416H80.9347H223.01C241.23 0 256 14.77 256 32.9897V223.01C256 241.23 241.23 256 223.01 256H80.9347H58.9416H32.9897C14.77 256 0 241.23 0 223.01V80.4949V58.5017V32.9897ZM21.9931 117.003V80.4949H58.9416V117.003H21.9931ZM80.9347 117.003V80.4949H234.007V117.003H80.9347ZM80.9347 58.5017H234.007V32.9897C234.007 26.9165 229.084 21.9931 223.01 21.9931H80.9347V58.5017ZM21.9931 58.5017H58.9416V21.9931H32.9897C26.9165 21.9931 21.9931 26.9165 21.9931 32.9897V58.5017ZM21.9931 197.498V223.01C21.9931 229.084 26.9165 234.007 32.9897 234.007H58.9416V197.498H21.9931ZM21.9931 175.505H58.9416V138.997H21.9931V175.505ZM80.9347 197.498V234.007H223.01C229.084 234.007 234.007 229.084 234.007 223.01V197.498H80.9347ZM234.007 175.505H80.9347V138.997H234.007V175.505Z" fill="#44AAA9"/>
</svg>
