<svg width="1791" height="720" viewBox="0 0 1791 720" fill="none" xmlns="http://www.w3.org/2000/svg">
<g filter="url(#filter0_b_19_2)">
<rect width="1790.47" height="720" rx="50" fill="url(#paint0_radial_19_2)"/>
<g filter="url(#filter1_d_19_2)">
<path fill-rule="evenodd" clip-rule="evenodd" d="M68 192.99C68 160.963 93.9629 135 125.99 135H171.608H210.268H460.01C492.037 135 518 160.963 518 192.99V527.01C518 559.037 492.037 585 460.01 585H210.268H171.608H125.99C93.9629 585 68 559.037 68 527.01V276.495V237.835V192.99ZM106.66 340.67V276.495H171.608V340.67H106.66ZM210.268 340.67V276.495H479.34V340.67H210.268ZM210.268 237.835H479.34V192.99C479.34 182.314 470.686 173.66 460.01 173.66H210.268V237.835ZM106.66 237.835H171.608V173.66H125.99C115.314 173.66 106.66 182.314 106.66 192.99V237.835ZM106.66 482.165V527.01C106.66 537.686 115.314 546.34 125.99 546.34H171.608V482.165H106.66ZM106.66 443.505H171.608V379.33H106.66V443.505ZM210.268 482.165V546.34H460.01C470.686 546.34 479.34 537.686 479.34 527.01V482.165H210.268ZM479.34 443.505H210.268V379.33H479.34V443.505Z" fill="#44AAA9"/>
</g>
<path d="M601 500V220H697C726.067 220 751.533 225.933 773.4 237.8C795.4 249.667 812.533 266.133 824.8 287.2C837.067 308.133 843.2 332.4 843.2 360C843.2 380.8 839.667 399.8 832.6 417C825.667 434.067 815.733 448.8 802.8 461.2C789.867 473.6 774.467 483.2 756.6 490C738.733 496.667 718.867 500 697 500H601ZM667.4 438.2H693.6C705.6 438.2 716.467 436.533 726.2 433.2C735.933 429.867 744.333 424.867 751.4 418.2C758.6 411.533 764.067 403.333 767.8 393.6C771.667 383.867 773.6 372.667 773.6 360C773.6 343.067 770.267 328.8 763.6 317.2C756.933 305.467 747.533 296.667 735.4 290.8C723.4 284.8 709.467 281.8 693.6 281.8H667.4V438.2ZM1027.92 506C1006.46 506 986.589 502.333 968.322 495C950.189 487.533 934.389 477.2 920.922 464C907.455 450.8 896.989 435.333 889.522 417.6C882.189 399.867 878.522 380.667 878.522 360C878.522 339.2 882.189 319.933 889.522 302.2C896.989 284.467 907.455 269 920.922 255.8C934.389 242.6 950.189 232.333 968.322 225C986.589 217.667 1006.46 214 1027.92 214C1049.52 214 1069.39 217.733 1087.52 225.2C1105.66 232.667 1121.46 243.067 1134.92 256.4C1148.39 269.733 1158.79 285.267 1166.12 303C1173.59 320.6 1177.32 339.6 1177.32 360C1177.32 380.667 1173.59 399.867 1166.12 417.6C1158.79 435.333 1148.39 450.8 1134.92 464C1121.46 477.2 1105.66 487.533 1087.52 495C1069.39 502.333 1049.52 506 1027.92 506ZM1027.92 443.6C1039.52 443.6 1050.12 441.667 1059.72 437.8C1069.46 433.933 1077.92 428.333 1085.12 421C1092.32 413.667 1097.86 404.867 1101.72 394.6C1105.72 384.2 1107.72 372.667 1107.72 360C1107.72 342.933 1104.26 328.133 1097.32 315.6C1090.52 303.067 1081.06 293.4 1068.92 286.6C1056.92 279.667 1043.26 276.2 1027.92 276.2C1016.46 276.2 1005.86 278.2 996.122 282.2C986.389 286.067 977.922 291.667 970.722 299C963.655 306.333 958.122 315.133 954.122 325.4C950.122 335.667 948.122 347.2 948.122 360C948.122 376.933 951.589 391.667 958.522 404.2C965.455 416.733 974.922 426.467 986.922 433.4C999.055 440.2 1012.72 443.6 1027.92 443.6ZM1226 500V220H1422.8V277.6H1292.4V329.6H1401.8V382.8H1292.4V441.8H1424.4V500H1226ZM1479.91 500V220H1593.51C1614.31 220 1632.44 223.4 1647.91 230.2C1663.51 236.867 1675.51 246.6 1683.91 259.4C1692.44 272.2 1696.71 287.533 1696.71 305.4C1696.71 319.133 1694.11 331.267 1688.91 341.8C1683.71 352.2 1676.57 360.867 1667.51 367.8C1658.44 374.733 1648.17 379.933 1636.71 383.4L1712.11 500H1633.31L1570.91 397H1546.31V500H1479.91ZM1546.31 343.8H1585.51C1599.37 343.8 1610.17 341.067 1617.91 335.6C1625.77 330.133 1629.71 321.467 1629.71 309.6C1629.71 297.6 1625.97 288.8 1618.51 283.2C1611.17 277.467 1600.64 274.6 1586.91 274.6H1546.31V343.8Z" fill="#44AAA9"/>
</g>
<defs>
<filter id="filter0_b_19_2" x="-4" y="-4" width="1798.47" height="728" filterUnits="userSpaceOnUse" color-interpolation-filters="sRGB">
<feFlood flood-opacity="0" result="BackgroundImageFix"/>
<feGaussianBlur in="BackgroundImageFix" stdDeviation="2"/>
<feComposite in2="SourceAlpha" operator="in" result="effect1_backgroundBlur_19_2"/>
<feBlend mode="normal" in="SourceGraphic" in2="effect1_backgroundBlur_19_2" result="shape"/>
</filter>
<filter id="filter1_d_19_2" x="28.1" y="95.1" width="529.8" height="529.8" filterUnits="userSpaceOnUse" color-interpolation-filters="sRGB">
<feFlood flood-opacity="0" result="BackgroundImageFix"/>
<feColorMatrix in="SourceAlpha" type="matrix" values="0 0 0 0 0 0 0 0 0 0 0 0 0 0 0 0 0 0 127 0" result="hardAlpha"/>
<feOffset/>
<feGaussianBlur stdDeviation="19.95"/>
<feComposite in2="hardAlpha" operator="out"/>
<feColorMatrix type="matrix" values="0 0 0 0 0.199132 0 0 0 0 0.258333 0 0 0 0 0.257753 0 0 0 1 0"/>
<feBlend mode="normal" in2="BackgroundImageFix" result="effect1_dropShadow_19_2"/>
<feBlend mode="normal" in="SourceGraphic" in2="effect1_dropShadow_19_2" result="shape"/>
</filter>
<radialGradient id="paint0_radial_19_2" cx="0" cy="0" r="1" gradientUnits="userSpaceOnUse" gradientTransform="translate(1957.67 -58.7647) rotate(159.609) scale(1169.98 766.57)">
<stop stop-color="#145453"/>
<stop offset="1" stop-color="#1A1919"/>
</radialGradient>
</defs>
</svg>
